<svg width="143" height="33" viewBox="0 0 143 33" fill="none" xmlns="http://www.w3.org/2000/svg">
<path fill-rule="evenodd" clip-rule="evenodd" d="M43.6514 27.3981V5.63672H47.1532V27.3981H43.6514ZM50.6553 11.735V27.3976H53.9438V20.5153C53.9438 16.7449 55.5733 14.4496 58.2585 14.4496C60.2522 14.4496 61.4881 15.84 61.4881 17.8006V27.3976H64.7766V17.076C64.7766 13.6955 62.4556 11.4922 59.134 11.4922C56.9012 11.4922 55.0289 12.6104 53.9438 14.3908V11.735H50.6553ZM73.7777 27.6403C69.8529 27.6403 67.2265 25.3156 67.0757 22.086H70.3053C70.3973 23.4433 71.7252 24.8043 73.7777 24.8043C75.4992 24.8043 76.6763 23.9877 76.6763 22.9026C76.6763 21.8174 75.9222 21.3319 74.7451 21.0597L72.1482 20.4564C69.8529 19.9451 67.7709 18.8269 67.7709 15.8989C67.7709 13.4528 70.0037 11.4922 73.4761 11.4922C76.9485 11.4922 79.3321 13.3351 79.722 16.3513H76.4924C76.3121 14.9646 74.9548 14.1774 73.4761 14.1774C71.9974 14.1774 71.0594 14.8432 71.0594 15.8989C71.0594 16.7449 71.784 17.2857 72.9023 17.5579L75.4992 18.1317C78.0042 18.6761 80.0273 19.6693 80.0273 22.8106C80.0273 25.5289 77.5518 27.6403 73.7777 27.6403ZM92.5264 19.5515C92.5264 24.2305 95.7891 27.6403 100.405 27.6403L100.413 27.644C103.672 27.644 106.32 25.8894 107.549 23.1527H103.782C102.984 24.1716 101.811 24.7749 100.409 24.7749C98.0035 24.7749 96.3409 23.1122 95.962 20.6514H104.82H108.222C108.263 20.2946 108.285 19.9267 108.285 19.5515C108.285 14.8726 105.026 11.4922 100.405 11.4922C95.7854 11.4922 92.5264 14.8726 92.5264 19.5515ZM104.706 17.8963H96.076C96.6094 15.7702 98.2904 14.3577 100.409 14.3577C102.528 14.3577 104.157 15.7554 104.706 17.8963ZM117.911 27.6403C113.294 27.6403 110.032 24.2305 110.032 19.5515C110.032 14.8726 113.291 11.4922 117.911 11.4922C122.531 11.4922 125.79 14.8726 125.79 19.5515C125.79 24.2305 122.439 27.6403 117.911 27.6403ZM117.911 24.7749C120.567 24.7749 122.41 22.6009 122.41 19.5515C122.41 16.5022 120.537 14.3613 117.911 14.3613C115.284 14.3613 113.383 16.5353 113.383 19.5515C113.383 22.5678 115.163 24.7749 117.911 24.7749ZM127.979 27.3976V11.735H131.267V14.3908C132.352 12.6104 134.224 11.4922 136.457 11.4922C139.779 11.4922 142.1 13.6955 142.1 17.076V27.3976H138.811V17.8006C138.811 15.84 137.575 14.4496 135.582 14.4496C132.897 14.4496 131.267 16.7449 131.267 20.5153V27.3976H127.979ZM84.1507 20.9385V14.5234L84.147 14.5197H81.333V11.7315H84.147V7.14453H87.5237V11.7315H91.2132V14.5197H87.5237V20.9348C87.5237 22.7667 89.0098 24.2491 90.838 24.2491H91.2132V27.6258H90.838C87.1449 27.6258 84.1507 24.6316 84.1507 20.9385Z" fill="white"></path>
<path fill-rule="evenodd" clip-rule="evenodd" d="M16.3543 8.84784H16.3948C21.3716 8.84784 25.6165 5.7212 27.2791 1.3292L20.9707 0.148438L16.3543 8.84784ZM16.3543 8.84784H16.3138C11.337 8.84784 7.09209 5.72488 5.42946 1.3292H5.42578L11.7342 0.148438L16.3543 8.84784ZM8.6994 16.4991V16.4586C8.6994 11.4817 5.57277 7.23685 1.18076 5.57422L0 11.8827L8.6994 16.4991ZM8.6994 16.4991V16.5395C8.6994 21.5164 5.57645 25.7612 1.18076 27.4239V27.4276L0 21.1191L8.6994 16.4991ZM32.7043 11.8827L31.5235 5.57422V5.5779C27.1278 7.24053 24.0049 11.4854 24.0049 16.4623V16.5027V16.5432V16.5469C24.0049 21.5237 27.1315 25.7686 31.5235 27.4312L32.7043 21.1228L24.0049 16.5027L32.7043 11.8827ZM27.2789 31.671L20.9704 32.8517L16.3504 24.1523H16.3908C21.3677 24.1523 25.6126 27.2753 27.2752 31.671H27.2789ZM16.3504 24.1523L11.7303 32.8517L5.42188 31.671C7.08451 27.279 11.3294 24.1523 16.3062 24.1523H16.3099H16.3504Z" fill="#FBE14C"></path>
</svg>
