<svg xmlns="http://www.w3.org/2000/svg" xmlns:xlink="http://www.w3.org/1999/xlink" width="600" zoomAndPan="magnify" viewBox="0 0 450 449.999984" height="600" preserveAspectRatio="xMidYMid meet" version="1.2"><defs><clipPath id="5763adbf8e"><path d="M 225 0 C 100.734375 0 0 100.734375 0 225 C 0 349.265625 100.734375 450 225 450 C 349.265625 450 450 349.265625 450 225 C 450 100.734375 349.265625 0 225 0 Z M 225 0 "/></clipPath><clipPath id="69e3fe8ab9"><path d="M 0 0 L 450 0 L 450 168.75 L 0 168.75 Z M 0 0 "/></clipPath><clipPath id="4d488c25e1"><path d="M 225 -281.25 C 100.734375 -281.25 0 -180.515625 0 -56.25 C 0 68.015625 100.734375 168.75 225 168.75 C 349.265625 168.75 450 68.015625 450 -56.25 C 450 -180.515625 349.265625 -281.25 225 -281.25 Z M 225 -281.25 "/></clipPath><clipPath id="820b733be6"><path d="M 0 112.152344 L 195 112.152344 L 195 450 L 0 450 Z M 0 112.152344 "/></clipPath><clipPath id="c103431181"><path d="M -30 112.152344 C -154.265625 112.152344 -255 212.886719 -255 337.152344 C -255 461.417969 -154.265625 562.152344 -30 562.152344 C 94.265625 562.152344 195 461.417969 195 337.152344 C 195 212.886719 94.265625 112.152344 -30 112.152344 Z M -30 112.152344 "/></clipPath><clipPath id="f4aee096b2"><path d="M 251.25 112.152344 L 450 112.152344 L 450 450 L 251.25 450 Z M 251.25 112.152344 "/></clipPath><clipPath id="f272d54cca"><path d="M 476.25 112.152344 C 351.984375 112.152344 251.25 212.886719 251.25 337.152344 C 251.25 461.417969 351.984375 562.152344 476.25 562.152344 C 600.515625 562.152344 701.25 461.417969 701.25 337.152344 C 701.25 212.886719 600.515625 112.152344 476.25 112.152344 Z M 476.25 112.152344 "/></clipPath><clipPath id="e9276f9acc"><path d="M 129.953125 15 L 204.953125 15 L 204.953125 90 L 129.953125 90 Z M 129.953125 15 "/></clipPath><clipPath id="83850596a3"><path d="M 167.453125 15 C 146.746094 15 129.953125 31.789062 129.953125 52.5 C 129.953125 73.210938 146.746094 90 167.453125 90 C 188.164062 90 204.953125 73.210938 204.953125 52.5 C 204.953125 31.789062 188.164062 15 167.453125 15 Z M 167.453125 15 "/></clipPath><clipPath id="a8b535a23e"><path d="M 243.503906 13.5 L 318.503906 13.5 L 318.503906 88.5 L 243.503906 88.5 Z M 243.503906 13.5 "/></clipPath><clipPath id="ce0d774320"><path d="M 281.003906 13.5 C 260.292969 13.5 243.503906 30.289062 243.503906 51 C 243.503906 71.710938 260.292969 88.5 281.003906 88.5 C 301.714844 88.5 318.503906 71.710938 318.503906 51 C 318.503906 30.289062 301.714844 13.5 281.003906 13.5 Z M 281.003906 13.5 "/></clipPath><clipPath id="15d06f8bd9"><path d="M 4 205 L 80 205 L 80 281 L 4 281 Z M 4 205 "/></clipPath><clipPath id="cded7a2a46"><path d="M 60.476562 193.480469 L 92.121094 261.476562 L 24.125 293.121094 L -7.519531 225.125 Z M 60.476562 193.480469 "/></clipPath><clipPath id="6de91415b0"><path d="M 76.296875 227.476562 C 67.558594 208.699219 45.253906 200.5625 26.476562 209.300781 C 7.699219 218.039062 -0.4375 240.34375 8.300781 259.121094 C 17.039062 277.898438 39.34375 286.035156 58.121094 277.296875 C 76.898438 268.558594 85.035156 246.253906 76.296875 227.476562 Z M 76.296875 227.476562 "/></clipPath><clipPath id="4c1e2a676b"><path d="M 4 205 L 80 205 L 80 281 L 4 281 Z M 4 205 "/></clipPath><clipPath id="36cd44b475"><path d="M 60.476562 193.480469 L 92.121094 261.476562 L 24.125 293.121094 L -7.519531 225.125 Z M 60.476562 193.480469 "/></clipPath><clipPath id="d01a181f39"><path d="M 60.476562 193.480469 L 92.390625 262.054688 L 23.816406 293.96875 L -8.097656 225.390625 Z M 60.476562 193.480469 "/></clipPath><clipPath id="4c4ec4f8c6"><path d="M 76.296875 227.476562 C 67.558594 208.699219 45.253906 200.5625 26.476562 209.300781 C 7.699219 218.039062 -0.4375 240.34375 8.300781 259.121094 C 17.039062 277.898438 39.34375 286.035156 58.121094 277.296875 C 76.898438 268.558594 85.035156 246.253906 76.296875 227.476562 Z M 76.296875 227.476562 "/></clipPath><clipPath id="0a77c9804b"><path d="M 55 314 L 131 314 L 131 390 L 55 390 Z M 55 314 "/></clipPath><clipPath id="d98abf4431"><path d="M 110.96875 301.976562 L 142.613281 369.972656 L 74.617188 401.617188 L 42.972656 333.621094 Z M 110.96875 301.976562 "/></clipPath><clipPath id="a721aa3543"><path d="M 126.789062 335.976562 C 118.050781 317.199219 95.746094 309.058594 76.96875 317.796875 C 58.191406 326.535156 50.054688 348.84375 58.792969 367.621094 C 67.53125 386.394531 89.835938 394.535156 108.613281 385.796875 C 127.390625 377.058594 135.527344 354.753906 126.789062 335.976562 Z M 126.789062 335.976562 "/></clipPath><clipPath id="b36c870ad3"><path d="M 55 314 L 131 314 L 131 390 L 55 390 Z M 55 314 "/></clipPath><clipPath id="f216ed9a24"><path d="M 110.96875 301.976562 L 142.613281 369.972656 L 74.617188 401.617188 L 42.972656 333.621094 Z M 110.96875 301.976562 "/></clipPath><clipPath id="3c11e47fe1"><path d="M 110.96875 301.976562 L 142.882812 370.550781 L 74.304688 402.464844 L 42.394531 333.890625 Z M 110.96875 301.976562 "/></clipPath><clipPath id="8188bd2c33"><path d="M 126.789062 335.976562 C 118.050781 317.199219 95.746094 309.058594 76.96875 317.796875 C 58.191406 326.535156 50.054688 348.84375 58.792969 367.621094 C 67.53125 386.394531 89.835938 394.535156 108.613281 385.796875 C 127.390625 377.058594 135.527344 354.753906 126.789062 335.976562 Z M 126.789062 335.976562 "/></clipPath><clipPath id="e8998298d3"><path d="M 372 199 L 448 199 L 448 275 L 372 275 Z M 372 199 "/></clipPath><clipPath id="ed1a47c2b2"><path d="M 459.664062 218.410156 L 428.929688 286.820312 L 360.515625 256.082031 L 391.253906 187.671875 Z M 459.664062 218.410156 "/></clipPath><clipPath id="3c1537d044"><path d="M 444.296875 252.613281 C 452.785156 233.722656 444.351562 211.527344 425.460938 203.039062 C 406.570312 194.550781 384.375 202.984375 375.886719 221.878906 C 367.398438 240.769531 375.832031 262.964844 394.722656 271.453125 C 413.613281 279.941406 435.808594 271.507812 444.296875 252.613281 Z M 444.296875 252.613281 "/></clipPath><clipPath id="54276fed67"><path d="M 372 199 L 448 199 L 448 275 L 372 275 Z M 372 199 "/></clipPath><clipPath id="6b47cdc55d"><path d="M 459.664062 218.410156 L 428.929688 286.820312 L 360.515625 256.082031 L 391.253906 187.671875 Z M 459.664062 218.410156 "/></clipPath><clipPath id="4fe84a650c"><path d="M 459.664062 218.410156 L 428.667969 287.402344 L 359.671875 256.402344 L 390.671875 187.410156 Z M 459.664062 218.410156 "/></clipPath><clipPath id="468ab1ec78"><path d="M 444.296875 252.613281 C 452.785156 233.722656 444.351562 211.527344 425.460938 203.039062 C 406.570312 194.550781 384.375 202.984375 375.886719 221.878906 C 367.398438 240.769531 375.832031 262.964844 394.722656 271.453125 C 413.613281 279.941406 435.808594 271.507812 444.296875 252.613281 Z M 444.296875 252.613281 "/></clipPath><clipPath id="f40e1ee4d2"><path d="M 317 314 L 393 314 L 393 390 L 317 390 Z M 317 314 "/></clipPath><clipPath id="dae6d81600"><path d="M 405 333.207031 L 374.261719 401.617188 L 305.851562 370.878906 L 336.589844 302.46875 Z M 405 333.207031 "/></clipPath><clipPath id="f30040973f"><path d="M 389.632812 367.414062 C 398.117188 348.519531 389.683594 326.324219 370.792969 317.835938 C 351.902344 309.347656 329.707031 317.78125 321.21875 336.675781 C 312.730469 355.566406 321.164062 377.761719 340.054688 386.25 C 358.949219 394.738281 381.144531 386.304688 389.632812 367.414062 Z M 389.632812 367.414062 "/></clipPath><clipPath id="b7083d871c"><path d="M 317 314 L 393 314 L 393 390 L 317 390 Z M 317 314 "/></clipPath><clipPath id="1520687990"><path d="M 405 333.207031 L 374.261719 401.617188 L 305.851562 370.878906 L 336.589844 302.46875 Z M 405 333.207031 "/></clipPath><clipPath id="6e0e4216ef"><path d="M 405 333.207031 L 374 402.199219 L 305.007812 371.199219 L 336.007812 302.207031 Z M 405 333.207031 "/></clipPath><clipPath id="4a9216bb17"><path d="M 389.632812 367.414062 C 398.117188 348.519531 389.683594 326.324219 370.792969 317.835938 C 351.902344 309.347656 329.707031 317.78125 321.21875 336.675781 C 312.730469 355.566406 321.164062 377.761719 340.054688 386.25 C 358.949219 394.738281 381.144531 386.304688 389.632812 367.414062 Z M 389.632812 367.414062 "/></clipPath></defs><g id="6d2dee16d2"><rect x="0" width="450" y="0" height="449.999984" style="fill:#ffffff;fill-opacity:1;stroke:none;"/><rect x="0" width="450" y="0" height="449.999984" style="fill:#ffffff;fill-opacity:1;stroke:none;"/><g clip-rule="nonzero" clip-path="url(#5763adbf8e)"><path style="fill:none;stroke-width:14;stroke-linecap:butt;stroke-linejoin:miter;stroke:#e8e8e8;stroke-opacity:1;stroke-miterlimit:4;" d="M 300.000013 0 C 134.3125 0 -0.0000108667 134.31251 -0.0000108667 300.000023 C -0.0000108667 465.687536 134.3125 600.000047 300.000013 600.000047 C 465.687525 600.000047 600.000036 465.687536 600.000036 300.000023 C 600.000036 134.31251 465.687525 0 300.000013 0 Z M 300.000013 0 " transform="matrix(0.75,0,0,0.75,0.00000815,0)"/></g><g clip-rule="nonzero" clip-path="url(#69e3fe8ab9)"><g clip-rule="nonzero" clip-path="url(#4d488c25e1)"><path style="fill:none;stroke-width:120;stroke-linecap:butt;stroke-linejoin:miter;stroke:#724ab8;stroke-opacity:1;stroke-miterlimit:4;" d="M 300.000013 -0.0000292083 C 134.3125 -0.0000292083 -0.0000108667 134.312481 -0.0000108667 299.999994 C -0.0000108667 465.687507 134.3125 600.000018 300.000013 600.000018 C 465.687525 600.000018 600.000036 465.687507 600.000036 299.999994 C 600.000036 134.312481 465.687525 -0.0000292083 300.000013 -0.0000292083 Z M 300.000013 -0.0000292083 " transform="matrix(0.75,0,0,0.75,0.00000815,-281.249978)"/></g></g><g clip-rule="nonzero" clip-path="url(#820b733be6)"><g clip-rule="nonzero" clip-path="url(#c103431181)"><path style="fill:none;stroke-width:120;stroke-linecap:butt;stroke-linejoin:miter;stroke:#724ab8;stroke-opacity:1;stroke-miterlimit:4;" d="M 299.999986 0.000501981 C 134.312473 0.000501981 -0.0000373489 134.313012 -0.0000373489 300.000525 C -0.0000373489 465.688038 134.312473 600.000549 299.999986 600.000549 C 465.687499 600.000549 600.000009 465.688038 600.000009 300.000525 C 600.000009 134.313012 465.687499 0.000501981 299.999986 0.000501981 Z M 299.999986 0.000501981 " transform="matrix(0.75,0,0,0.75,-254.999972,112.151967)"/></g></g><g clip-rule="nonzero" clip-path="url(#f4aee096b2)"><g clip-rule="nonzero" clip-path="url(#f272d54cca)"><path style="fill:none;stroke-width:120;stroke-linecap:butt;stroke-linejoin:miter;stroke:#724ab8;stroke-opacity:1;stroke-miterlimit:4;" d="M 300.000039 0.000501981 C 134.312526 0.000501981 0.0000152261 134.313012 0.0000152261 300.000525 C 0.0000152261 465.688038 134.312526 600.000549 300.000039 600.000549 C 465.687551 600.000549 600.000062 465.688038 600.000062 300.000525 C 600.000062 134.313012 465.687551 0.000501981 300.000039 0.000501981 Z M 300.000039 0.000501981 " transform="matrix(0.75,0,0,0.75,251.249989,112.151967)"/></g></g><g clip-rule="nonzero" clip-path="url(#e9276f9acc)"><g clip-rule="nonzero" clip-path="url(#83850596a3)"><path style=" stroke:none;fill-rule:nonzero;fill:#724ab8;fill-opacity:1;" d="M 129.953125 15 L 204.953125 15 L 204.953125 90 L 129.953125 90 Z M 129.953125 15 "/><path style="fill:none;stroke-width:2;stroke-linecap:butt;stroke-linejoin:miter;stroke:#724ab8;stroke-opacity:1;stroke-miterlimit:4;" d="M 49.997422 0.00000155778 C 22.388045 0.00000155778 -0.00258164 22.38542 -0.00258164 50.000005 C -0.00258164 77.614591 22.388045 100.000009 49.997422 100.000009 C 77.612008 100.000009 99.997426 77.614591 99.997426 50.000005 C 99.997426 22.38542 77.612008 0.00000155778 49.997422 0.00000155778 Z M 49.997422 0.00000155778 " transform="matrix(0.75,0,0,0.75,129.955061,14.999999)"/></g></g><g clip-rule="nonzero" clip-path="url(#a8b535a23e)"><g clip-rule="nonzero" clip-path="url(#ce0d774320)"><path style=" stroke:none;fill-rule:nonzero;fill:#724ab8;fill-opacity:1;" d="M 243.503906 13.5 L 318.503906 13.5 L 318.503906 88.5 L 243.503906 88.5 Z M 243.503906 13.5 "/><path style="fill:none;stroke-width:2;stroke-linecap:butt;stroke-linejoin:miter;stroke:#724ab8;stroke-opacity:1;stroke-miterlimit:4;" d="M 49.999685 0.000001402 C 22.3851 0.000001402 -0.000318578 22.38542 -0.000318578 50.000005 C -0.000318578 77.614591 22.3851 100.000009 49.999685 100.000009 C 77.614271 100.000009 99.999689 77.614591 99.999689 50.000005 C 99.999689 22.38542 77.614271 0.000001402 49.999685 0.000001402 Z M 49.999685 0.000001402 " transform="matrix(0.75,0,0,0.75,243.504145,13.499999)"/></g></g><g clip-rule="nonzero" clip-path="url(#15d06f8bd9)"><g clip-rule="nonzero" clip-path="url(#cded7a2a46)"><g clip-rule="nonzero" clip-path="url(#6de91415b0)"><path style=" stroke:none;fill-rule:nonzero;fill:#724ab8;fill-opacity:1;" d="M 60.476562 193.480469 L 92.121094 261.476562 L 24.125 293.121094 L -7.519531 225.125 Z M 60.476562 193.480469 "/></g></g></g><g clip-rule="nonzero" clip-path="url(#4c1e2a676b)"><g clip-rule="nonzero" clip-path="url(#36cd44b475)"><g clip-rule="nonzero" clip-path="url(#d01a181f39)"><g clip-rule="nonzero" clip-path="url(#4c4ec4f8c6)"><path style="fill:none;stroke-width:2;stroke-linecap:butt;stroke-linejoin:miter;stroke:#724ab8;stroke-opacity:1;stroke-miterlimit:4;" d="M 49.997375 0.00142736 C 22.382685 0.00114345 -0.00116405 22.386544 -0.00144796 50.001234 C -0.00173186 77.615924 22.383668 99.999773 49.998359 100.000057 C 77.613049 100.000341 99.996897 77.61494 99.997181 50.00025 C 99.997465 22.38556 77.612065 0.00171126 49.997375 0.00142736 Z M 49.997375 0.00142736 " transform="matrix(0.316443,0.679973,-0.679973,0.316443,60.476528,193.479227)"/></g></g></g></g><g clip-rule="nonzero" clip-path="url(#0a77c9804b)"><g clip-rule="nonzero" clip-path="url(#d98abf4431)"><g clip-rule="nonzero" clip-path="url(#a721aa3543)"><path style=" stroke:none;fill-rule:nonzero;fill:#724ab8;fill-opacity:1;" d="M 110.96875 301.976562 L 142.613281 369.972656 L 74.617188 401.617188 L 42.972656 333.621094 Z M 110.96875 301.976562 "/></g></g></g><g clip-rule="nonzero" clip-path="url(#b36c870ad3)"><g clip-rule="nonzero" clip-path="url(#f216ed9a24)"><g clip-rule="nonzero" clip-path="url(#3c11e47fe1)"><g clip-rule="nonzero" clip-path="url(#8188bd2c33)"><path style="fill:none;stroke-width:2;stroke-linecap:butt;stroke-linejoin:miter;stroke:#724ab8;stroke-opacity:1;stroke-miterlimit:4;" d="M 50.000885 0.00271839 C 22.386195 0.00243449 -0.0023755 22.385637 -0.0026594 50.000327 C -0.00294331 77.615017 22.387179 100.001064 50.001869 100.001348 C 77.611837 99.999434 100.000408 77.616231 100.000692 50.001541 C 100.000976 22.386851 77.615575 0.0030023 50.000885 0.00271839 Z M 50.000885 0.00271839 " transform="matrix(0.316443,0.679973,-0.679973,0.316443,110.968483,301.976432)"/></g></g></g></g><g clip-rule="nonzero" clip-path="url(#e8998298d3)"><g clip-rule="nonzero" clip-path="url(#ed1a47c2b2)"><g clip-rule="nonzero" clip-path="url(#3c1537d044)"><path style=" stroke:none;fill-rule:nonzero;fill:#724ab8;fill-opacity:1;" d="M 459.664062 218.410156 L 428.929688 286.820312 L 360.515625 256.082031 L 391.253906 187.671875 Z M 459.664062 218.410156 "/></g></g></g><g clip-rule="nonzero" clip-path="url(#54276fed67)"><g clip-rule="nonzero" clip-path="url(#6b47cdc55d)"><g clip-rule="nonzero" clip-path="url(#4fe84a650c)"><g clip-rule="nonzero" clip-path="url(#468ab1ec78)"><path style="fill:none;stroke-width:2;stroke-linecap:butt;stroke-linejoin:miter;stroke:#724ab8;stroke-opacity:1;stroke-miterlimit:4;" d="M 49.998263 0.00115468 C 22.384846 0.000302232 -0.000884181 22.385893 -0.00173663 49.99931 C -0.00258909 77.612728 22.383001 99.998458 50.00117 99.997176 C 77.614587 99.998028 100.000317 77.612437 100.00117 49.99902 C 100.002022 22.385603 77.616432 -0.000127418 49.998263 0.00115468 Z M 49.998263 0.00115468 " transform="matrix(-0.307376,0.68412,-0.68412,-0.307376,459.665924,218.408832)"/></g></g></g></g><g clip-rule="nonzero" clip-path="url(#f40e1ee4d2)"><g clip-rule="nonzero" clip-path="url(#dae6d81600)"><g clip-rule="nonzero" clip-path="url(#f30040973f)"><path style=" stroke:none;fill-rule:nonzero;fill:#724ab8;fill-opacity:1;" d="M 405 333.207031 L 374.261719 401.617188 L 305.851562 370.878906 L 336.589844 302.46875 Z M 405 333.207031 "/></g></g></g><g clip-rule="nonzero" clip-path="url(#b7083d871c)"><g clip-rule="nonzero" clip-path="url(#1520687990)"><g clip-rule="nonzero" clip-path="url(#6e0e4216ef)"><g clip-rule="nonzero" clip-path="url(#4a9216bb17)"><path style="fill:none;stroke-width:2;stroke-linecap:butt;stroke-linejoin:miter;stroke:#724ab8;stroke-opacity:1;stroke-miterlimit:4;" d="M 49.996746 -0.000919125 C 22.385463 0.00297926 -0.000267339 22.38857 -0.00111979 50.001987 C -0.00197224 77.615405 22.383618 100.001135 50.001787 99.999853 C 77.615204 100.000705 100.000934 77.615114 100.001786 50.001697 C 100.000504 22.383529 77.614914 -0.00220123 49.996746 -0.000919125 Z M 49.996746 -0.000919125 " transform="matrix(-0.307376,0.68412,-0.68412,-0.307376,404.999977,333.206108)"/></g></g></g></g></g></svg>